<?xml version="1.0" standalone="no"?>
<!DOCTYPE svg PUBLIC "-//W3C//DTD SVG 20010904//EN"
 "http://www.w3.org/TR/2001/REC-SVG-20010904/DTD/svg10.dtd">
<svg version="1.0" xmlns="http://www.w3.org/2000/svg"
 width="190.000000pt" height="192.000000pt" viewBox="0 0 190.000000 192.000000"
 preserveAspectRatio="xMidYMid meet">
<metadata>
Created by potrace 1.15, written by Peter Selinger 2001-2017
</metadata>
<g transform="translate(0.000000,192.000000) scale(0.100000,-0.100000)"
fill="#000000" stroke="none">
<path d="M795 1914 c-146 -30 -261 -76 -369 -148 -214 -143 -357 -354 -411
-609 -19 -89 -19 -305 0 -394 82 -389 388 -687 773 -754 99 -17 330 -6 421 20
320 93 563 332 663 651 21 68 23 93 23 280 0 187 -2 212 -23 280 -109 348
-398 608 -746 669 -57 10 -288 13 -331 5z m533 -783 l-173 -372 -374 -175
c-206 -96 -375 -173 -376 -172 -4 6 337 733 348 745 13 12 740 353 745 348 1
-1 -75 -170 -170 -374z"/>
<path d="M874 1039 c-24 -25 -29 -39 -29 -79 0 -40 5 -54 29 -79 25 -26 37
-31 79 -31 40 0 53 5 78 29 25 25 29 37 29 81 0 44 -4 56 -29 81 -25 24 -38
29 -78 29 -42 0 -54 -5 -79 -31z"/>
</g>
</svg>
